<?xml version="1.0" encoding="UTF-8"?>
<svg id="Layer_2" data-name="Layer 2" xmlns="http://www.w3.org/2000/svg" viewBox="0 0 324.75 89.65">
  <defs>
    <style>
      .cls-1 {
        fill: none;
      }

      .cls-2 {
        fill: #fff;
      }

      .cls-3 {
        fill: #da4f27;
      }
    </style>
  </defs>
  <g id="Layer_1-2" data-name="Layer 1">
    <g>
      <rect class="cls-1" width="324.75" height="89.65"/>
      <g>
        <path class="cls-1" d="m56.36,25.77c-1.26-.93-2.79-1.39-4.58-1.39s-3.37.48-4.79,1.44c-1.43.96-2.51,2.31-3.25,4.06h15.33c-.54-1.81-1.44-3.17-2.71-4.1Z"/>
        <ellipse class="cls-1" cx="148.43" cy="32.83" rx="9.41" ry="8.17" transform="translate(17.46 110) rotate(-42.98)"/>
        <polygon class="cls-3" points="8.75 48.34 16.29 48.34 18.71 30.82 30.72 30.82 31.63 23.8 19.63 23.8 20.82 15.57 32.7 15.57 33.61 8.5 14.2 8.5 8.75 48.34"/>
        <path class="cls-3" d="m59.54,19.39c-2.16-1.21-4.62-1.81-7.38-1.81-4.59,0-8.5,1.66-11.74,4.97-3.24,3.31-4.86,7.36-4.86,12.14,0,4.19,1.3,7.55,3.89,10.07,2.59,2.53,6.13,3.79,10.63,3.79,2.87,0,5.48-.54,7.84-1.64,2.36-1.09,4.25-2.57,5.67-4.44l-6.36-3.3c-2.09,1.81-4.5,2.72-7.2,2.72-2.24,0-3.99-.61-5.27-1.82-1.27-1.22-1.95-2.85-2.02-4.9h23.51c.18-1.14.27-2.13.27-2.98,0-2.71-.62-5.22-1.87-7.53-1.25-2.31-2.95-4.07-5.1-5.28Zm-15.8,10.48c.74-1.75,1.82-3.11,3.25-4.06,1.43-.96,3.02-1.44,4.79-1.44s3.31.47,4.58,1.39c1.26.93,2.17,2.3,2.71,4.1h-15.33Z"/>
        <path class="cls-3" d="m78.94,22.88l.51-4.01h-6.44l-4.03,29.46h7.26l1.43-11.08c.64-4.96,1.52-8.26,2.62-9.9,1.11-1.63,2.37-2.45,3.78-2.45.26,0,.66.1,1.21.29l2.64-6.57c-.7-.34-1.38-.52-2.03-.52-2.71,0-5.03,1.59-6.96,4.77Z"/>
        <polygon class="cls-3" points="100.36 35.26 95.75 18.88 88.66 18.88 97.08 48.34 100.59 48.34 117.68 18.88 109.81 18.88 100.36 35.26"/>
        <polygon class="cls-3" points="118.49 48.34 125.7 48.34 129.67 18.88 122.51 18.88 118.49 48.34"/>
        <path class="cls-3" d="m127.48,6.82c-1.23,0-2.28.44-3.15,1.31-.88.88-1.31,1.93-1.31,3.15s.44,2.28,1.31,3.15c.88.88,1.93,1.31,3.15,1.31s2.28-.44,3.15-1.31c.88-.87,1.31-1.93,1.31-3.15s-.44-2.28-1.31-3.15c-.88-.88-1.93-1.31-3.15-1.31Z"/>
        <path class="cls-3" d="m159.01,20.04c-2.25-1.72-5.13-2.73-8.39-2.73-8.57,0-16.5,6.95-17.71,15.52-1.21,8.57,4.75,15.52,13.32,15.52s16.5-6.95,17.71-15.52l3.69-26.11h-6.74l-1.88,13.32Zm-1.81,12.79c-.69,4.84-5.17,8.77-10.01,8.77s-8.22-3.93-7.53-8.77c.69-4.84,5.17-8.77,10.01-8.77s8.22,3.93,7.53,8.77Z"/>
      </g>
      <g>
        <path class="cls-2" d="m54.16,67.74h1.49v15.04h-1.49v-15.04Zm1.43,13.65h3.4c1.39,0,2.44-.33,3.13-.98s1.04-1.63,1.04-2.94v-4.43c0-1.31-.35-2.29-1.04-2.94-.69-.65-1.74-.98-3.13-.98h-3.4v-1.39h3.34c1.28,0,2.34.2,3.19.59s1.48.99,1.9,1.79.63,1.8.63,3v4.26c0,1.2-.21,2.2-.64,2.99s-1.06,1.39-1.91,1.79c-.85.4-1.91.6-3.19.6h-3.33v-1.39Z"/>
        <path class="cls-2" d="m70.76,82.94l-1.06-.56c-.7-.38-1.24-.92-1.61-1.64-.37-.72-.55-1.59-.55-2.6v-1.21c0-1.06.18-1.97.53-2.72s.87-1.32,1.55-1.72c.68-.39,1.49-.59,2.44-.59.9,0,1.66.19,2.3.58s1.12.95,1.45,1.69c.33.74.5,1.63.5,2.67v1.23h-7.76v-1.34h6.37v-.1c0-1.06-.25-1.88-.75-2.47-.5-.58-1.21-.87-2.12-.87-1,0-1.77.31-2.32.92-.54.61-.82,1.48-.82,2.61v1.37c0,1.08.29,1.91.87,2.5.58.59,1.4.88,2.45.88.5,0,.99-.1,1.47-.31.49-.21.92-.5,1.3-.88l1.01.97c-.52.51-1.12.91-1.78,1.18-.66.28-1.33.42-2.01.42h-1.49Z"/>
        <path class="cls-2" d="m78.39,72.04h4.84v1.28h-4.84v-1.28Zm1.71,10.07c-.4-.48-.61-1.19-.61-2.13v-11.07h1.49v11.09c0,.46.1.82.31,1.07.21.25.51.37.92.37h1.01v1.39h-1.22c-.87,0-1.51-.24-1.91-.72Z"/>
        <path class="cls-2" d="m89.03,82.94l-1.06-.56c-.7-.38-1.24-.92-1.61-1.64s-.55-1.59-.55-2.6v-1.21c0-1.06.18-1.97.53-2.72.36-.75.87-1.32,1.55-1.72.68-.39,1.49-.59,2.44-.59.9,0,1.66.19,2.3.58s1.12.95,1.45,1.69c.33.74.5,1.63.5,2.67v1.23h-7.76v-1.34h6.37v-.1c0-1.06-.25-1.88-.75-2.47s-1.21-.87-2.12-.87c-1,0-1.77.31-2.32.92-.54.61-.82,1.48-.82,2.61v1.37c0,1.08.29,1.91.87,2.5s1.4.88,2.45.88c.5,0,.99-.1,1.47-.31.49-.21.92-.5,1.3-.88l1.01.97c-.52.51-1.12.91-1.78,1.18-.66.28-1.33.42-2.01.42h-1.49Z"/>
        <path class="cls-2" d="m100.26,82.94s-.34-.17-1.03-.52-1.21-.86-1.55-1.55-.51-1.55-.51-2.6v-1.77c0-1.03.17-1.88.52-2.57s.86-1.19,1.55-1.54c.69-.34,1.55-.51,2.58-.51.59,0,1.12.06,1.6.19s.91.32,1.29.57c.38.25.71.57.99.96l-1.11.98c-.37-.44-.78-.77-1.24-.99-.46-.22-.96-.33-1.52-.33-1.07,0-1.87.27-2.39.8s-.79,1.34-.79,2.43v1.77c0,1.1.27,1.92.8,2.46.53.54,1.33.82,2.39.82.59,0,1.12-.1,1.6-.31s.91-.52,1.3-.94l.96.95c-.28.38-.61.69-.99.94s-.81.43-1.29.56-1.02.19-1.6.19h-1.55Z"/>
        <path class="cls-2" d="m107.2,72.04h4.84v1.28h-4.84v-1.28Zm1.71,10.07c-.4-.48-.61-1.19-.61-2.13v-11.07h1.49v11.09c0,.46.1.82.31,1.07s.51.37.92.37h1.01v1.39h-1.22c-.87,0-1.51-.24-1.91-.72Z"/>
        <path class="cls-2" d="m114.94,81.29h1.49v1.49h-1.49v-1.49Z"/>
        <path class="cls-2" d="m134.79,67.74h1.56v15.04h-1.49v-12.92l.16.66-4.53,10.17h-1.06l-4.53-9.96.16-.87v12.92h-1.49v-15.04h1.56l4.83,10.86,4.83-10.86Z"/>
        <path class="cls-2" d="m141.6,82.39c-.66-.37-1.17-.9-1.52-1.6s-.52-1.54-.52-2.53v-1.75c0-.97.17-1.8.52-2.5.35-.69.85-1.22,1.52-1.58.66-.36,1.46-.54,2.39-.54s1.73.18,2.39.54c.66.36,1.17.89,1.52,1.58.35.69.52,1.53.52,2.5v1.78c0,.98-.17,1.82-.52,2.51-.35.69-.85,1.22-1.52,1.59-.66.37-1.46.55-2.39.55s-1.73-.18-2.39-.55Zm4.56-1.69c.51-.57.77-1.37.77-2.4v-1.78c0-1.03-.26-1.82-.77-2.39s-1.24-.85-2.18-.85-1.65.28-2.16.85c-.51.57-.77,1.36-.77,2.39v1.78c0,1.03.26,1.84.77,2.4.51.57,1.23.85,2.16.85s1.66-.28,2.18-.85Z"/>
        <path class="cls-2" d="m151.41,72.04h1.49v10.74h-1.49v-10.74Zm7.14,4.23c0-.95-.25-1.69-.75-2.21-.5-.52-1.21-.79-2.12-.79s-1.57.23-2.05.7-.73,1.13-.73,1.98l-.22-2.07c.38-.7.88-1.21,1.51-1.53s1.36-.47,2.18-.47c1.17,0,2.07.38,2.7,1.14s.96,1.84.96,3.23v6.52h-1.49v-6.51Z"/>
        <path class="cls-2" d="m163.56,67.74h1.49v1.49h-1.49v-1.49Zm0,4.3h1.49v10.74h-1.49v-10.74Z"/>
        <path class="cls-2" d="m167.74,72.04h4.84v1.28h-4.84v-1.28Zm1.71,10.07c-.4-.48-.61-1.19-.61-2.13v-11.07h1.49v11.09c0,.46.1.82.31,1.07s.51.37.92.37h1.01v1.39h-1.22c-.87,0-1.51-.24-1.91-.72Z"/>
        <path class="cls-2" d="m177.2,82.39c-.66-.37-1.17-.9-1.52-1.6s-.52-1.54-.52-2.53v-1.75c0-.97.17-1.8.52-2.5.35-.69.85-1.22,1.52-1.58.66-.36,1.46-.54,2.39-.54s1.73.18,2.39.54c.66.36,1.17.89,1.52,1.58.35.69.52,1.53.52,2.5v1.78c0,.98-.17,1.82-.52,2.51s-.85,1.22-1.52,1.59c-.66.37-1.46.55-2.39.55s-1.73-.18-2.39-.55Zm4.56-1.69c.51-.57.77-1.37.77-2.4v-1.78c0-1.03-.26-1.82-.77-2.39s-1.24-.85-2.18-.85-1.65.28-2.16.85c-.51.57-.77,1.36-.77,2.39v1.78c0,1.03.26,1.84.77,2.4s1.23.85,2.16.85,1.66-.28,2.18-.85Z"/>
        <path class="cls-2" d="m187.02,72.04h1.49v10.74h-1.49v-10.74Zm5.49,1.41c-.33-.12-.72-.18-1.16-.18-.9,0-1.59.24-2.09.72-.5.48-.74,1.14-.74,1.99l-.22-2.07c.39-.64.91-1.14,1.55-1.49.64-.36,1.34-.53,2.09-.53.49,0,.93.07,1.33.21s.74.35,1.04.63l-.96,1.24c-.22-.23-.5-.4-.83-.52Z"/>
        <path class="cls-2" d="m194.71,81.29h1.49v1.49h-1.49v-1.49Z"/>
        <path class="cls-2" d="m206.77,82.94l-.97-.21c-.65-.14-1.25-.34-1.82-.62-.56-.28-1.09-.62-1.58-1.03l.9-1.18c.63.55,1.32.97,2.08,1.24.76.28,1.58.41,2.47.41,1.29,0,2.29-.26,2.99-.77.71-.51,1.06-1.23,1.06-2.15h0c0-.58-.15-1.04-.46-1.39-.31-.34-.7-.6-1.19-.78-.49-.17-1.11-.33-1.88-.48-.02,0-.04-.01-.07-.02s-.05,0-.08-.02l-.3-.06c-1.06-.2-1.9-.41-2.53-.63s-1.17-.59-1.62-1.11c-.44-.52-.67-1.24-.67-2.17h0c0-.94.21-1.74.63-2.39s1.03-1.16,1.83-1.51c.8-.34,1.76-.52,2.89-.52.53,0,1.06.06,1.58.18.52.12,1.03.29,1.54.52.51.23,1.01.52,1.51.87l-.88,1.17c-.65-.46-1.28-.79-1.9-1.02s-1.23-.34-1.84-.34c-1.23,0-2.18.26-2.85.78-.68.52-1.01,1.24-1.01,2.18h0c0,.58.17,1.02.51,1.35.34.33.76.57,1.26.73s1.18.32,2.05.5c.03,0,.06.01.09.02s.06.01.1.02c.04,0,.08.02.12.03s.08.02.12.03c.94.19,1.73.41,2.36.66.63.25,1.15.64,1.57,1.16.42.53.63,1.24.63,2.14v.02c0,.92-.22,1.7-.65,2.35-.43.65-1.06,1.15-1.89,1.49s-1.82.51-2.98.51h-1.09Z"/>
        <path class="cls-2" d="m217.9,82.39c-.66-.37-1.17-.9-1.52-1.6-.35-.7-.52-1.54-.52-2.53v-1.75c0-.97.17-1.8.52-2.5.35-.69.85-1.22,1.52-1.58.66-.36,1.46-.54,2.39-.54s1.73.18,2.39.54c.66.36,1.17.89,1.52,1.58.35.69.52,1.53.52,2.5v1.78c0,.98-.17,1.82-.52,2.51-.35.69-.85,1.22-1.52,1.59-.66.37-1.46.55-2.39.55s-1.73-.18-2.39-.55Zm4.56-1.69c.51-.57.77-1.37.77-2.4v-1.78c0-1.03-.26-1.82-.77-2.39s-1.24-.85-2.18-.85-1.65.28-2.16.85c-.51.57-.77,1.36-.77,2.39v1.78c0,1.03.26,1.84.77,2.4s1.23.85,2.16.85,1.66-.28,2.18-.85Z"/>
        <path class="cls-2" d="m229.21,79.96c0,.46.11.81.34,1.06.22.25.54.38.94.38h.99v1.39h-1.24c-.8,0-1.42-.25-1.86-.74-.44-.5-.66-1.2-.66-2.1v-12.2h1.49v12.22Z"/>
        <path class="cls-2" d="m240.79,72.04h1.58l-4.24,10.74h-1.18l-4.24-10.74h1.58l3.25,8.8,3.25-8.8Z"/>
        <path class="cls-2" d="m247.14,82.94l-1.06-.56c-.7-.38-1.24-.92-1.61-1.64-.37-.72-.55-1.59-.55-2.6v-1.21c0-1.06.18-1.97.53-2.72.36-.75.87-1.32,1.55-1.72s1.49-.59,2.44-.59c.9,0,1.66.19,2.3.58s1.12.95,1.45,1.69c.33.74.5,1.63.5,2.67v1.23h-7.76v-1.34h6.37v-.1c0-1.06-.25-1.88-.75-2.47-.5-.58-1.21-.87-2.12-.87-1,0-1.77.31-2.32.92-.54.61-.82,1.48-.82,2.61v1.37c0,1.08.29,1.91.87,2.5.58.59,1.4.88,2.45.88.5,0,.99-.1,1.47-.31s.92-.5,1.3-.88l1.01.97c-.52.51-1.12.91-1.78,1.18-.66.28-1.33.42-2.01.42h-1.49Z"/>
        <path class="cls-2" d="m255.18,81.29h1.49v1.49h-1.49v-1.49Z"/>
      </g>
      <g>
        <path class="cls-2" d="m188.75,21.44l-2.06,3.06c-1.66-2.37-3.63-3.55-5.91-3.55-1.3,0-2.41.42-3.33,1.27-.92.85-1.38,1.79-1.38,2.82,0,.79.28,1.55.84,2.27.54.72,1.78,1.71,3.71,2.95,2.82,1.82,4.68,3.41,5.58,4.77.88,1.37,1.33,2.95,1.33,4.74,0,2.47-.86,4.52-2.59,6.15-1.72,1.62-3.97,2.44-6.73,2.44-3.65,0-6.72-1.62-9.21-4.85l2.3-2.68c2.18,2.65,4.56,3.98,7.13,3.98,1.46,0,2.74-.51,3.82-1.54,1.08-1.03,1.63-2.22,1.63-3.57,0-1.1-.41-2.16-1.22-3.17-.52-.65-1.93-1.75-4.22-3.31-2.47-1.7-4.1-3.11-4.87-4.22-.78-1.1-1.17-2.35-1.17-3.74,0-2.18.82-4.04,2.47-5.58,1.64-1.53,3.72-2.3,6.23-2.3,1.48,0,2.82.3,4.02.89,1.2.6,2.42,1.65,3.64,3.17Z"/>
        <path class="cls-2" d="m284.96,18.89h3.8l-.51,3.71c1.01-1.41,2.23-2.5,3.66-3.29,1.43-.79,2.89-1.18,4.39-1.18,1.07,0,2.18.25,3.34.76l-1.79,3.47c-.94-.38-1.72-.57-2.35-.57-1.32,0-2.62.46-3.91,1.38-1.29.92-2.33,2.26-3.14,4.02-.8,1.76-1.48,4.65-2.04,8.68l-1.72,12.48h-3.72l3.99-29.46Z"/>
        <path class="cls-2" d="m307.82,7.87h3.71l-1.47,11.02h5.93l-.43,3.3h-5.94l-3.49,26.16h-3.79l3.54-26.16h-5.06l.46-3.3h5.04l1.49-11.02Z"/>
        <path class="cls-2" d="m263.09,17.82c-8.43,0-16.48,6.84-17.96,15.27-1.49,8.43,4.14,15.27,12.58,15.27,4.54,0,8.93-2.02,12.28-5.16l-.91,5.16h3.9l2.69-15.27c1.49-8.43-4.14-15.27-12.58-15.27Zm-4.7,26.64c-6.28,0-10.47-5.09-9.36-11.37,1.11-6.28,7.09-11.37,13.37-11.37s10.47,5.09,9.36,11.37c-1.11,6.28-7.09,11.37-13.37,11.37Z"/>
        <path class="cls-2" d="m236.48,48.4h-4.12l3.42-19.39c.38-2.15-.1-4.15-1.36-5.64-1.22-1.45-3.04-2.25-5.13-2.25-4.46,0-8.73,3.63-9.52,8.09l-3.38,19.19h-4.13l3.42-19.39c.38-2.15-.1-4.15-1.35-5.64-1.22-1.46-3.05-2.26-5.14-2.26-4.46,0-8.73,3.63-9.51,8.09l-3.39,19.19h-4.12l3.42-19.39c1.17-6.62,7.5-12,14.12-12,4.05,0,7.46,2.06,9.14,5.44,2.8-3.38,6.92-5.44,10.96-5.44,3.22,0,6.04,1.25,7.94,3.52,1.94,2.32,2.69,5.4,2.11,8.68l-3.39,19.19Z"/>
      </g>
    </g>
  </g>
</svg>